<?xml version="1.0" encoding="UTF-8"?>
<svg width="314px" height="636px" viewBox="0 0 314 636" version="1.1" xmlns="http://www.w3.org/2000/svg" xmlns:xlink="http://www.w3.org/1999/xlink">
    <!-- Generator: Sketch 41 (35326) - http://www.bohemiancoding.com/sketch -->
    <title>Phone</title>
    <desc>Created with Sketch.</desc>
    <defs>
        <path d="M1.57352033,80.9686914 L1.57352033,45.6499629 C1.57352033,20.609863 21.8879581,0.311225406 46.9472473,0.311225406 L265.981089,0.311225406 C291.041324,0.311225406 311.357024,20.609863 311.357024,45.6499629 L311.357024,590.342304 C311.357024,615.382089 291.041324,635.681042 265.981089,635.681042 L174.89199,635.681042 C174.89199,635.681042 172.286912,634.729725 170.525061,634.729725 L141.228813,634.729725 C139.304184,634.745475 137.037596,635.671591 137.010466,635.681042 L46.9472473,635.681042 C21.8879581,635.681042 1.57352033,615.382089 1.57352033,590.342304 L1.57352033,240.352955 L1.26405292,240.352955 C0.891493277,239.981248 0.292432508,238.64783 0,238.355505 L0,194.977047 C0.224608356,194.752448 1.19559785,193.491166 1.57352033,193.110639 L1.57352033,183.021959 L1.26405292,183.021959 C0.891493277,182.650253 0.292432508,181.316834 0,181.024509 L0,137.646051 C0.224608356,137.421452 1.19559785,136.16017 1.57352033,135.779643 L1.57352033,106.160624 L1.26405292,106.160624 C0.891493277,105.788918 0.292432508,104.455499 0,104.163174 L0,82.8350988 C0.224608356,82.6104999 1.19559785,81.349218 1.57352033,80.9686914 L1.57352033,80.9686914 Z M311.672485,183.021959 L311.357024,183.021959 L311.357024,135.773343 C311.729268,136.14505 312.710352,137.420192 312.937484,137.646051 L312.937484,181.024509 C312.644106,181.316519 312.047884,182.648048 311.672485,183.021959 L311.672485,183.021959 Z" id="path-1"></path>
        <mask id="mask-2" maskContentUnits="userSpaceOnUse" maskUnits="objectBoundingBox" x="0" y="0" width="312.937484" height="635.369816" fill="white">
            <use xlink:href="#path-1"></use>
        </mask>
        <path d="M94.3197364,563.547939 C94.3197364,577.118374 83.3044631,588.118365 69.7162885,588.118365 C56.1281139,588.118365 45.1128406,577.118374 45.1128406,563.547939 C45.1128406,549.974353 56.1281139,538.974362 69.7162885,538.974362 C83.3044631,538.974362 94.3197364,549.974353 94.3197364,563.547939 Z" id="path-3"></path>
        <mask id="mask-4" maskContentUnits="userSpaceOnUse" maskUnits="objectBoundingBox" x="0" y="0" width="49.2068957" height="49.1440036" fill="white">
            <use xlink:href="#path-3"></use>
        </mask>
    </defs>
    <g id="Dashboard" stroke="none" stroke-width="1" fill="none" fill-rule="evenodd">
        <g id="Customize" transform="translate(-98.000000, -301.000000)">
            <g id="Main-Area" transform="translate(0.000000, 230.146980)">
                <g id="Phone" transform="translate(98.378291, 70.701058)">
                    <g id="body" transform="translate(0.000000, 0.417657)">
                        <use id="body-1" stroke="#B4B7BD" mask="url(#mask-2)" stroke-width="2" xlink:href="#path-1"></use>
                        <path d="M264.403783,3.46128012 C289.464018,3.46128012 308.202412,22.1852053 308.202412,47.2249903 L308.202412,588.767277 C308.202412,613.807062 289.464018,632.530987 264.403783,632.530987 L48.5245532,632.530987 C23.465264,632.530987 4.72813207,613.807062 4.72813207,588.767277 L4.72813207,47.2249903 C4.72813207,22.1852053 23.465264,3.46128012 48.5245532,3.46128012 L264.403783,3.46128012 Z" id="body-2"></path>
                    </g>
                    <g id="cam-mic" transform="translate(88.013667, 34.438248)" stroke="#B4B7BD">
                        <use id="btn-shape1" mask="url(#mask-4)" stroke-width="2" xlink:href="#path-3"></use>
                        <path d="M40.9187843,4.04971034 C39.1704985,4.04971034 37.7480841,5.46124986 37.7480841,7.1963 C37.7480841,8.93103513 39.1704985,10.3425746 40.9187843,10.3425746 L96.4090357,10.3425746 C98.1573215,10.3425746 99.579736,8.93103513 99.579736,7.1963 C99.579736,5.46124986 98.1573215,4.04971034 96.4090357,4.04971034 L40.9187843,4.04971034 Z" id="Shape1"></path>
                    </g>
                </g>
            </g>
        </g>
    </g>
</svg>