<?xml version="1.0" encoding="utf-8"?>
<!-- Generator: Adobe Illustrator 20.1.0, SVG Export Plug-In . SVG Version: 6.00 Build 0)  -->
<svg version="1.1" id="Layer_1" xmlns="http://www.w3.org/2000/svg" xmlns:xlink="http://www.w3.org/1999/xlink" x="0px" y="0px"
	 viewBox="0 0 375 20" style="enable-background:new 0 0 375 20;" xml:space="preserve">
<style type="text/css">
	.st0{fill:#FFFFFF;}
</style>
<title>Group 2</title>
<desc>Created with Sketch.</desc>
<g id="Symbols">
	<g id="Status-Bar_x2F_White_x2F_20_x25_" transform="translate(-6.000000, -5.000000)">
		<g id="Group-2" transform="translate(6.000000, 5.000000)">
			<g id="Pin-Right" transform="translate(312.000000, 0.000000)">
				<path class="st0" d="M55.5,8v3.5h0.8c0.4,0,0.8-0.3,0.8-0.7v-2C57,8.3,56.7,8,56.2,8H55.5z"/>
				<path class="st0" d="M53.5,5H34c-0.8,0-1.5,0.7-1.5,1.5V13c0,0.8,0.7,1.5,1.5,1.5h19.5c0.8,0,1.5-0.7,1.5-1.5V6.5
					C55,5.7,54.3,5,53.5,5z M54.5,13c0,0.5-0.4,1-1,1H34c-0.6,0-1-0.4-1-1V6.5c0-0.5,0.4-1,1-1h19.5c0.6,0,1,0.4,1,1V13z"/>
				<path id="Battery-Level" class="st0" d="M34,6h15c0.3,0,0.5,0.2,0.5,0.5V13c0,0.3-0.2,0.5-0.5,0.5H34c-0.3,0-0.5-0.2-0.5-0.5
					V6.5C33.5,6.2,33.7,6,34,6z"/>
				<path id="_x38_0_x25_" class="st0" d="M8.7,15.2c0.9,0,1.6-0.2,2.2-0.7s0.8-1,0.8-1.8c0-0.6-0.2-1-0.5-1.4s-0.7-0.6-1.3-0.7
					v-0.1c0.4-0.1,0.8-0.4,1-0.7s0.4-0.7,0.4-1.2c0-0.7-0.3-1.2-0.8-1.6s-1-0.7-1.8-0.7S7.2,6.6,6.7,7S6,7.9,6,8.6
					c0,0.5,0.1,0.9,0.4,1.2s0.6,0.6,1,0.7v0.1c-0.5,0.1-1,0.3-1.3,0.7s-0.5,0.9-0.5,1.4c0,0.7,0.3,1.3,0.9,1.8S7.8,15.2,8.7,15.2z
					 M8.7,14.3c-0.6,0-1.1-0.2-1.4-0.5s-0.6-0.7-0.6-1.2s0.2-0.9,0.6-1.2S8.1,11,8.7,11s1.1,0.2,1.4,0.5s0.6,0.7,0.6,1.2
					s-0.2,0.9-0.6,1.2S9.3,14.3,8.7,14.3z M8.7,10.1c-0.5,0-0.9-0.1-1.2-0.4S7,9.1,7,8.7c0-0.4,0.2-0.8,0.5-1.1s0.7-0.4,1.2-0.4
					s0.9,0.1,1.2,0.4s0.5,0.6,0.5,1.1c0,0.4-0.2,0.8-0.5,1S9.2,10.1,8.7,10.1z M16.3,15.2c0.9,0,1.7-0.4,2.2-1.2s0.8-1.9,0.8-3.3
					S19,8.3,18.5,7.5s-1.3-1.2-2.2-1.2c-0.9,0-1.7,0.4-2.2,1.2s-0.8,1.9-0.8,3.3s0.3,2.5,0.8,3.3S15.3,15.2,16.3,15.2z M16.3,14.3
					c-0.6,0-1.1-0.3-1.4-0.9s-0.5-1.5-0.5-2.6s0.2-2,0.5-2.6s0.8-0.9,1.4-0.9c0.6,0,1.1,0.3,1.4,0.9s0.5,1.5,0.5,2.6s-0.2,2-0.5,2.6
					S16.9,14.3,16.3,14.3z M24.1,8.4c0-0.6-0.2-1.1-0.5-1.5s-0.8-0.6-1.3-0.6S21.4,6.6,21,7s-0.5,0.9-0.5,1.5S20.7,9.6,21,10
					s0.8,0.6,1.3,0.6s1-0.2,1.3-0.6S24.1,9,24.1,8.4z M22.3,9.7c-0.3,0-0.5-0.1-0.6-0.4s-0.2-0.5-0.2-0.9s0.1-0.7,0.2-0.9
					s0.4-0.3,0.6-0.3c0.3,0,0.5,0.1,0.6,0.3s0.2,0.5,0.2,0.9c0,0.4-0.1,0.7-0.2,0.9S22.6,9.7,22.3,9.7z M22.2,15l2.9-4l3.3-4.5h-1.1
					l-3,4L21.2,15H22.2z M29,13.1c0-0.6-0.2-1.1-0.5-1.5S27.7,11,27.2,11s-1,0.2-1.3,0.6s-0.5,0.9-0.5,1.5s0.2,1.1,0.5,1.5
					s0.8,0.6,1.3,0.6s1-0.2,1.3-0.6S29,13.7,29,13.1z M27.2,14.4c-0.3,0-0.5-0.1-0.6-0.4s-0.2-0.5-0.2-0.9s0.1-0.7,0.2-0.9
					s0.4-0.3,0.6-0.3c0.3,0,0.5,0.1,0.6,0.3s0.2,0.5,0.2,0.9s-0.1,0.7-0.2,0.9S27.5,14.4,27.2,14.4z"/>
			</g>
			<path id="_x31_1:31-AM" class="st0" d="M165,15h1.1V6.5h-1l-0.3,0.2c-0.2,0.2-0.5,0.4-0.8,0.6s-0.6,0.4-0.8,0.6l-0.3,0.2v1.1
				l0.3-0.2c0.2-0.2,0.5-0.3,0.8-0.5s0.5-0.4,0.8-0.5l0.3-0.2h0.1V15H165z M170.6,15h1.1V6.5h-1l-0.3,0.2c-0.2,0.2-0.5,0.4-0.8,0.6
				s-0.6,0.4-0.8,0.6l-0.3,0.2v1.1l0.3-0.2c0.2-0.2,0.5-0.3,0.8-0.5s0.5-0.4,0.8-0.5l0.3-0.2h0.1V15H170.6z M175,14
				c0.2,0,0.4-0.1,0.5-0.2s0.2-0.3,0.2-0.5s-0.1-0.4-0.2-0.5s-0.3-0.2-0.5-0.2s-0.4,0.1-0.5,0.2s-0.2,0.3-0.2,0.5s0.1,0.4,0.2,0.5
				S174.8,14,175,14z M175,9.5c0.2,0,0.4-0.1,0.5-0.2s0.2-0.3,0.2-0.5s-0.1-0.4-0.2-0.5S175.3,8,175,8c-0.2,0-0.4,0.1-0.5,0.2
				s-0.2,0.3-0.2,0.5s0.1,0.4,0.2,0.5S174.8,9.5,175,9.5z M179.5,11.1h1.1c0.6,0,1.1,0.1,1.4,0.4s0.5,0.7,0.5,1.2s-0.2,0.8-0.5,1.1
				s-0.8,0.4-1.4,0.4c-0.5,0-1-0.1-1.3-0.4s-0.6-0.6-0.6-1.1h-1c0,0.7,0.3,1.3,0.9,1.7s1.2,0.7,2.1,0.7c0.8,0,1.5-0.2,2.1-0.7
				s0.9-1.1,0.9-1.8c0-0.6-0.2-1.1-0.5-1.4s-0.8-0.6-1.4-0.7v-0.1c0.5-0.1,0.8-0.3,1.1-0.7s0.4-0.8,0.4-1.3c0-0.6-0.3-1.1-0.8-1.6
				s-1.1-0.6-1.9-0.6c-0.8,0-1.5,0.2-1.9,0.6s-0.8,1-0.8,1.7h1c0-0.5,0.2-0.8,0.5-1.1s0.7-0.4,1.2-0.4s0.9,0.1,1.2,0.4
				s0.4,0.6,0.4,1s-0.2,0.8-0.5,1.1s-0.7,0.4-1.2,0.4h-1V11.1z M187.3,15h1.1V6.5h-1L187,6.8c-0.2,0.2-0.5,0.4-0.8,0.6
				s-0.6,0.4-0.8,0.6l-0.3,0.2v1.1l0.3-0.2c0.2-0.2,0.5-0.3,0.8-0.5s0.5-0.4,0.8-0.5l0.3-0.2h0.1V15H187.3z M199.9,15h1.1l-3.1-8.5
				h-1l-3.1,8.5h1.1l0.8-2.4h3.4l0.1,0.4c0.1,0.2,0.2,0.5,0.3,0.8s0.2,0.6,0.3,0.8L199.9,15z M197.3,7.9L197.3,7.9l1.4,3.8H196
				l0.1-0.4c0.1-0.3,0.2-0.6,0.3-0.9l0.4-1.1c0.1-0.4,0.2-0.7,0.3-0.9L197.3,7.9z M210.8,15V6.5h-1.2l-2.9,7h-0.1l-2.9-7h-1.2V15h1
				V8.5h0.1l2.7,6.4h0.9l2.7-6.4h0.1V15H210.8z"/>
			<g id="Pin-Left" transform="translate(0.000000, 1.000000)">
				<path id="Carrier" class="st0" d="M50.1,14h1.1l-3.1-8.5h-1L43.9,14H45l0.8-2.4h3.4l0.1,0.4c0.1,0.2,0.2,0.5,0.3,0.8
					s0.2,0.6,0.3,0.8L50.1,14z M47.5,6.9L47.5,6.9l1.4,3.8h-2.7l0.1-0.4c0.1-0.3,0.2-0.6,0.3-0.9L47,8.2c0.1-0.4,0.2-0.7,0.3-0.9
					L47.5,6.9z M55.9,14V6.5h2.7v-1h-6.5v0.9h2.7V14H55.9z M66.2,14h1.3L66,12.4c0.2-0.4,0.4-0.8,0.5-1.3s0.2-1.1,0.2-1.7V9.3h-1
					v0.1c0,0.5,0,1-0.1,1.3s-0.2,0.7-0.3,0.9l-2.1-2.3c0.7-0.3,1.1-0.7,1.4-1S65,7.6,65,7.1c0-0.6-0.2-1-0.6-1.4S63.6,5.3,63,5.3
					s-1.1,0.2-1.5,0.5s-0.6,0.8-0.6,1.4c0,0.3,0.1,0.6,0.2,0.9c0.2,0.3,0.4,0.7,0.8,1.1c0,0-0.1,0-0.1,0.1s-0.1,0-0.1,0.1
					s-0.1,0-0.1,0c-0.6,0.3-1,0.6-1.3,1s-0.4,0.8-0.4,1.3c0,0.7,0.3,1.3,0.8,1.7s1.2,0.7,2.1,0.7c0.5,0,1-0.1,1.5-0.3
					s0.9-0.4,1.3-0.7l0.2,0.2c0.1,0.1,0.3,0.3,0.4,0.4L66.2,14z M62.1,10C62.2,10,62.2,10,62.1,10c0.1-0.1,0.2-0.1,0.2-0.1h0.1
					l2.4,2.6c-0.2,0.2-0.5,0.4-0.9,0.6s-0.7,0.2-1.1,0.2c-0.6,0-1-0.1-1.4-0.4s-0.5-0.7-0.5-1.2c0-0.3,0.1-0.6,0.3-0.9
					S61.7,10.2,62.1,10z M62.7,8.8C62.4,8.5,62.2,8.2,62,8s-0.2-0.5-0.2-0.7c0-0.3,0.1-0.6,0.3-0.8s0.5-0.3,0.8-0.3s0.6,0.1,0.8,0.3
					S64,7,64,7.3s-0.1,0.6-0.3,0.8C63.5,8.3,63.2,8.6,62.7,8.8z M72.1,14V6.5h2.7v-1h-6.5v0.9H71V14H72.1z"/>
				<path id="Mobile-Signal" class="st0" d="M8.8,11.5c1.5,0,2.8-1.2,2.8-2.8S10.3,6,8.8,6S6,7.2,6,8.8S7.2,11.5,8.8,11.5z
					 M15.8,11.5c1.5,0,2.8-1.2,2.8-2.8S17.3,6,15.8,6S13,7.2,13,8.8S14.2,11.5,15.8,11.5z M22.8,11.5c1.5,0,2.8-1.2,2.8-2.8
					S24.3,6,22.8,6S20,7.2,20,8.8S21.2,11.5,22.8,11.5z M29.8,11.5c1.5,0,2.8-1.2,2.8-2.8S31.3,6,29.8,6S27,7.2,27,8.8
					S28.2,11.5,29.8,11.5z M29.8,11C31,11,32,10,32,8.8s-1-2.2-2.2-2.2s-2.2,1-2.2,2.2S28.5,11,29.8,11z M36.8,11.5
					c1.5,0,2.8-1.2,2.8-2.8S38.3,6,36.8,6S34,7.2,34,8.8S35.2,11.5,36.8,11.5z M36.8,11C38,11,39,10,39,8.8s-1-2.2-2.2-2.2
					s-2.2,1-2.2,2.2S35.5,11,36.8,11z"/>
			</g>
		</g>
	</g>
</g>
</svg>
